<?xml version="1.0" encoding="UTF-8" standalone="no"?><!DOCTYPE svg PUBLIC "-//W3C//DTD SVG 1.1//EN" "http://www.w3.org/Graphics/SVG/1.1/DTD/svg11.dtd"><svg width="100%" height="100%" viewBox="0 0 2659 646" version="1.1" xmlns="http://www.w3.org/2000/svg" xmlns:xlink="http://www.w3.org/1999/xlink" xml:space="preserve" xmlns:serif="http://www.serif.com/" style="fill-rule:evenodd;clip-rule:evenodd;stroke-linejoin:round;stroke-miterlimit:2;"><g id="Ebene-1" serif:id="Ebene 1"><path d="M541.872,413.597c-8.826,-9.204 -13.24,-21.261 -13.24,-36.163c0,-7.442 1.563,-14.497 4.709,-21.169c3.134,-6.659 7.251,-12.54 12.356,-17.642c5.092,-5.089 10.977,-9.204 17.648,-12.348c6.668,-3.132 13.727,-4.702 21.182,-4.702c11.768,-0 22.066,4.61 30.892,13.818c8.822,9.217 13.235,21.27 13.235,36.163c-0,7.451 -1.571,14.506 -4.705,21.169c-3.146,6.668 -7.263,12.548 -12.356,17.638c-5.1,5.102 -10.985,9.216 -17.652,12.348c-6.672,3.145 -13.735,4.706 -21.182,4.706c-11.764,0 -22.061,-4.602 -30.887,-13.818m-11.769,-167.876c-19.027,8.229 -35.596,19.311 -49.714,33.222c-14.123,13.918 -25.3,30.19 -33.538,48.802c-8.239,18.625 -12.356,38.132 -12.356,58.51c0,18.429 3.33,35.484 10.001,51.156c6.668,15.684 15.886,29.311 27.654,40.868c11.768,11.566 25.687,20.682 41.776,27.342c16.077,6.659 33.73,9.995 52.953,9.995c21.178,0 41.276,-4.115 60.304,-12.348c19.023,-8.23 35.596,-19.304 49.719,-33.222c14.118,-13.911 25.299,-30.082 33.538,-48.511c8.234,-18.421 12.355,-38.02 12.355,-58.802c0,-18.421 -3.338,-35.475 -10.005,-51.156c-6.672,-15.676 -15.886,-29.298 -27.65,-40.868c-11.768,-11.557 -25.695,-20.674 -41.776,-27.342c-16.09,-6.663 -33.738,-9.995 -52.953,-9.995c-21.182,0 -41.284,4.115 -60.308,12.349m317.713,167.876c-8.822,-9.204 -13.235,-21.261 -13.235,-36.163c-0,-7.442 1.562,-14.497 4.705,-21.169c3.133,-6.659 7.255,-12.54 12.355,-17.642c5.093,-5.089 10.977,-9.204 17.653,-12.348c6.663,-3.132 13.722,-4.702 21.182,-4.702c11.764,-0 22.061,4.61 30.887,13.818c8.826,9.217 13.239,21.27 13.239,36.163c0,7.451 -1.571,14.506 -4.709,21.169c-3.142,6.668 -7.263,12.548 -12.356,17.638c-5.1,5.102 -10.984,9.216 -17.648,12.348c-6.676,3.145 -13.735,4.706 -21.182,4.706c-11.768,0 -22.065,-4.602 -30.891,-13.818m-11.764,-167.876c-19.032,8.229 -35.597,19.311 -49.719,33.222c-14.119,13.918 -25.299,30.19 -33.538,48.802c-8.234,18.625 -12.356,38.132 -12.356,58.51c0,18.429 3.33,35.484 10.006,51.156c6.663,15.684 15.885,29.311 27.649,40.868c11.768,11.566 25.687,20.682 41.776,27.342c16.078,6.659 33.73,9.995 52.953,9.995c21.182,0 41.276,-4.115 60.308,-12.348c19.019,-8.23 35.596,-19.304 49.715,-33.222c14.123,-13.911 25.299,-30.082 33.538,-48.511c8.238,-18.421 12.355,-38.02 12.355,-58.802c0,-18.421 -3.338,-35.475 -10.001,-51.156c-6.676,-15.676 -15.885,-29.298 -27.653,-40.868c-11.769,-11.557 -25.696,-20.674 -41.777,-27.342c-16.085,-6.663 -33.738,-9.995 -52.953,-9.995c-21.177,0 -41.284,4.115 -60.303,12.349m346.245,-106.434l-94.137,-0l-65.309,370.449l94.137,-0l65.309,-370.449Zm260.034,158.847c6.701,-6.701 12.785,-15.364 18.244,-25.984c5.459,-10.624 8.189,-23.402 8.189,-38.332c-0,-12.057 -2.155,-23.781 -6.468,-35.171c-4.309,-11.387 -10.485,-21.486 -18.527,-30.291c-8.043,-8.804 -17.432,-15.838 -28.154,-21.102c-10.731,-5.265 -22.603,-7.897 -35.626,-7.897l-147.665,0l-65.212,370.379l162.892,-0c17.619,-0 33.992,-3.157 49.123,-9.475c15.127,-6.314 28.249,-14.735 39.359,-25.264c11.106,-10.524 19.919,-22.726 26.433,-36.608c6.509,-13.876 9.768,-28.47 9.768,-43.788c-0,-12.631 -2.063,-23.73 -6.18,-33.305c-4.117,-9.566 -8.572,-17.7 -13.356,-24.401c-5.368,-7.467 -11.593,-13.785 -18.673,-18.95c9.763,-5.551 18.385,-12.157 25.853,-19.811m-163.467,-105.947l92.22,0c13.023,0 23.653,4.835 31.888,14.497c8.234,9.671 12.355,20.341 12.355,32.015c0,7.084 -1.579,13.831 -4.742,20.24c-3.159,6.418 -7.376,12.111 -12.639,17.084c-5.272,4.981 -11.447,8.9 -18.532,11.774c-7.088,2.869 -14.364,4.306 -21.832,4.306l-96.529,0l17.811,-99.916Zm-46.54,264.719l20.686,-117.716l95.092,-0c7.851,-0 14.939,1.578 21.257,4.739c6.322,3.157 11.731,7.176 16.231,12.057c4.501,4.881 8.047,10.674 10.631,17.371c2.588,6.701 3.879,13.594 3.879,20.674c0,8.996 -1.775,17.325 -5.313,24.976c-3.546,7.659 -8.476,14.214 -14.798,19.67c-6.321,5.456 -13.501,9.858 -21.544,13.206c-8.047,3.353 -16.377,5.023 -24.995,5.023l-101.126,-0Zm336.148,0.146c-8.042,-3.732 -14.985,-8.805 -20.827,-15.218c-5.843,-6.41 -10.535,-14.256 -14.077,-23.544c-3.546,-9.283 -5.313,-19.378 -5.313,-30.29c-0,-14.164 2.533,-27.133 7.613,-38.907c5.072,-11.769 11.535,-21.864 19.39,-30.29c7.851,-8.421 16.807,-14.972 26.862,-19.666c10.056,-4.689 20.157,-7.034 30.308,-7.034c9.001,0 17.523,1.77 25.57,5.31c8.043,3.544 14.981,8.571 20.828,15.077c5.838,6.509 10.53,14.355 14.077,23.543c3.542,9.187 5.313,19.237 5.313,30.144c-0,14.169 -2.538,27.233 -7.614,39.194c-5.075,11.966 -11.539,22.157 -19.39,30.578c-7.855,8.425 -16.906,14.98 -27.149,19.666c-10.247,4.693 -20.253,7.034 -30.021,7.034c-9.005,0 -17.523,-1.866 -25.57,-5.597m-4.884,-203.71c-16.856,7.463 -31.745,17.85 -44.672,31.152c-12.927,13.307 -23.32,29.387 -31.171,48.236c-7.855,18.854 -11.776,39.478 -11.776,61.871c-0,17.23 2.821,32.977 8.472,47.233c5.646,14.26 13.547,26.704 23.703,37.324c10.147,10.624 22.215,18.858 36.196,24.693c13.981,5.843 29.4,8.758 46.256,8.758c17.998,0 35.43,-3.731 52.286,-11.199c16.852,-7.463 31.746,-17.846 44.673,-31.152c12.926,-13.302 23.315,-29.328 31.17,-48.09c7.851,-18.758 11.777,-39.336 11.777,-61.73c-0,-16.842 -2.825,-32.539 -8.472,-47.091c-5.651,-14.543 -13.602,-27.083 -23.845,-37.611c-10.247,-10.525 -22.315,-18.754 -36.2,-24.693c-13.89,-5.931 -29.258,-8.9 -46.111,-8.9c-18.002,0 -35.433,3.736 -52.286,11.199m276.682,160.496l47.69,95.898l55.732,-0l-66.938,-135.229l107.448,-129.49l-61.767,-0l-74.122,90.154l-43.381,-90.154l-56.019,-0l62.916,129.49l-115.202,135.229l61.766,-0l81.877,-95.898Zm311.116,-4.064l55.895,-43.514c4.709,-3.914 11.668,-9.895 20.886,-17.933c9.214,-8.03 18.332,-17.538 27.362,-28.52c9.018,-10.97 16.86,-23.318 23.532,-37.045c6.668,-13.715 10.001,-28.225 10.001,-43.513c0,-14.498 -2.846,-28.121 -8.53,-40.865c-5.688,-12.736 -14.118,-23.905 -25.299,-33.518c-11.176,-9.599 -24.912,-17.246 -41.185,-22.931c-16.281,-5.68 -35.008,-8.529 -56.19,-8.529c-38.051,-0 -70.114,10.982 -96.196,32.93c-26.091,21.961 -42.86,53.126 -50.307,93.495l98.259,8.821c1.959,-12.54 6.959,-22.053 15.002,-28.521c8.034,-6.467 16.769,-9.699 26.183,-9.699c7.842,-0 14.414,2.349 19.71,7.055c5.297,4.702 7.943,10.391 7.943,17.05c0,9.025 -4.321,18.329 -12.943,27.933c-8.635,9.608 -18.048,18.521 -28.241,26.754l-152.387,133.48l-11.768,67.032l267.706,-0l17.652,-99.962l-107.085,-0Zm441.27,-55.862l-37.659,-0l37.659,-214.625l-118.265,-0l-180.628,223.446l-15.298,85.265l155.921,-0l-11.181,61.738l104.143,-0l10.589,-61.738l37.655,-0l17.064,-94.086Zm-122.382,-94.081l-16.473,94.081l-58.837,-0l75.31,-94.081Z" style="fill:#1d1d1b;fill-rule:nonzero;"/><path d="M345.886,362.421c11.326,-4.757 23.857,-8.717 25.29,-19.958c2.122,-16.621 5.13,-33.489 7.143,-50.131c1.425,-11.757 -12.693,-19.124 -24.957,-20.028c-2.48,31.115 -4.909,57.969 -7.476,90.117" style="fill:#212121;fill-rule:nonzero;"/><path d="M610.692,89.847c-2,-3.54 -4.901,-6.314 -7.905,-8.517c-11.26,-8.267 -25.095,-10.795 -38.81,-9.337c-19.281,2.045 -38.4,5.576 -57.586,8.496c-0.267,0.037 -0.488,0.37 -0.975,0.762c-5.447,105.114 -6.48,106.355 -5.868,106.263c18.386,-2.74 60.216,-8.733 78.54,-11.836c13.472,-2.282 24.703,-9.358 34.483,-18.616c3.192,-3.02 5.559,-6.406 6.639,-10.246l-8.518,-56.969Z" style="fill:#212121;fill-rule:nonzero;"/><path d="M718.402,92.106c-1.929,0.087 -3.85,0.479 -5.767,0.766c-27.758,4.144 -55.512,8.296 -83.265,12.424l2.792,18.683c20.382,-3.045 40.763,-6.085 61.145,-9.134c9.118,-1.361 18.257,-2.615 27.35,-4.144c5.55,-0.928 8.584,-5.135 7.926,-10.332c-0.642,-5.098 -4.763,-8.505 -10.181,-8.263" style="fill:#212121;fill-rule:nonzero;"/><path d="M155.723,514.504c-0.112,0.608 -0.075,1.328 0.059,2.186c2.062,13.257 5.634,38.245 7.813,51.481c1.342,8.158 5.226,14.73 10.827,20.136c0.516,0.525 1.154,1.12 1.9,1.766c0.046,0.042 0.091,0.079 0.142,0.121c0.641,0.549 1.354,1.12 2.154,1.711c0.25,0.192 0.483,0.4 0.742,0.588c0.021,-0.005 0.041,-0.013 0.058,-0.021c5.497,3.831 14.156,7.779 25.158,6.509c0.995,-0.05 2.033,-0.308 3.042,-0.491c0.195,-0.038 0.383,-0.05 0.579,-0.092c7.213,-0.999 14.406,-2.124 21.603,-3.198c45.76,-6.839 79.823,-11.878 125.57,-18.783c18.673,-2.82 31.492,-15.851 32.975,-34.601c0.575,-7.267 -1.058,-14.747 -2.012,-22.086c-1.18,-9.108 -4.409,-29.869 -5.755,-38.811l-224.855,33.585Z" style="fill:#212121;fill-rule:nonzero;"/><path d="M183.053,489.568l16.077,-242.108l-137.734,20.573l-0,-0.041l11.576,-142.413l417.238,-62.321l0.012,-0l-11.576,142.454l-137.731,20.57l-16.077,242.109l-141.785,21.177Z" style="fill:#1d1d1b;fill-rule:nonzero;"/></g></svg>